<svg version="1.2" xmlns="http://www.w3.org/2000/svg" viewBox="0 0 1133 1065" width="1149" height="1080">
	<title>logo</title>
	<style>
		.s0 { fill: #c1a35a } 
	</style>
	<g>
		<path class="s0" d="m0 28v34h567 567v-34-34h-567-567z"/>
		<path class="s0" d="m51 87.5v8.5h510 510v-8.5-8.5h-510-510z"/>
		<path class="s0" d="m113 120.5v8.5h453.5 453.5v-8.5-8.5h-453.5-453.5z"/>
		<path class="s0" d="m295 197.3v50.2l17 17 17 17v-67.3-67.2h-17-17z"/>
		<path class="s0" d="m414 256.8v109.7l17 17 17 17v-126.8-126.7h-17-17z"/>
		<path class="s0" d="m532 315.8v168.7l17.5 17.5 17.5 17.5 16.5-16.5 16.5-16.5v-169.7-169.8h-34-34z"/>
		<path class="s0" d="m686 273.7v126.8l17-17 17-17v-109.7-109.8h-17-17z"/>
		<path class="s0" d="m805 214.2v67.3l17-17 17-17v-50.2-50.3h-17-17z"/>
		<path class="s0" d="m824.8 286.3l-138.8 138.9v49.7 49.6l17-17 17-17v-38-38l87.7-87.3 87.8-87.4 0.3 356.1 0.2 356.1h62 62v-8.5-8.5h-28-28l-0.2-393.9-0.3-393.8z"/>
		<path class="s0" d="m170 541.3v393.7h-28.5-28.5v8.5 8.5h62.5 62.5l0.2-356.2 0.3-356.1 87.8 87.5 87.7 87.5v38.4 38.4l17 17 17 17v-50-50l-139-139-139-139z"/>
		<path class="s0" d="m702.7 532.5l-135.7 136-136-136-136-136v286.8 286.7h-119-119v8.5 8.5h136 136v-230.2-230.3l119 119 118.9 118.9 118.8-118.9 118.8-118.8 0.3 230.1 0.2 230.2h136 136v-8.5-8.5h-119-119l-0.2-286.8-0.3-286.7z"/>
		<path class="s0" d="m414 819.8v184.2h-207-207v34 34h224 224v-201.3-201.2l-17-17-17-17z"/>
		<path class="s0" d="m702.8 652.7l-16.8 16.8v201.3 201.2h224 224v-34-34h-207-207l-0.2-184-0.3-184z"/>
	</g>
</svg>
